<mxfile host="65bd71144e">
    <diagram id="9guuLANdmSC8G7DQ9ks0" name="第 1 页">
        <mxGraphModel dx="3865" dy="897" grid="1" gridSize="10" guides="1" tooltips="1" connect="1" arrows="1" fold="1" page="1" pageScale="1" pageWidth="827" pageHeight="1169" math="0" shadow="0">
            <root>
                <mxCell id="0"/>
                <mxCell id="1" parent="0"/>
                <mxCell id="127" value="pending" style="edgeStyle=none;html=1;entryX=-0.007;entryY=0.156;entryDx=0;entryDy=0;entryPerimeter=0;exitX=1.003;exitY=0.423;exitDx=0;exitDy=0;exitPerimeter=0;" edge="1" parent="1" source="11" target="126">
                    <mxGeometry relative="1" as="geometry"/>
                </mxCell>
                <mxCell id="11" value="&lt;div style=&quot;background-color: rgb(40, 44, 52); font-family: Menlo, Monaco, &amp;quot;Courier New&amp;quot;, monospace; font-weight: normal; font-size: 14px; line-height: 21px;&quot;&gt;&lt;div style=&quot;color: rgb(171, 178, 191);&quot;&gt;&lt;span style=&quot;color: #e5c07b;&quot;&gt;UpdateQueue&lt;/span&gt;&lt;span style=&quot;color: #abb2bf;&quot;&gt;&amp;lt;&lt;/span&gt;&lt;span style=&quot;color: #e5c07b;&quot;&gt;T&lt;/span&gt;&lt;span style=&quot;color: #abb2bf;&quot;&gt; &lt;/span&gt;&lt;span style=&quot;color: #56b6c2;&quot;&gt;=&lt;/span&gt;&lt;span style=&quot;color: #abb2bf;&quot;&gt; any&amp;gt; &lt;/span&gt;&lt;span style=&quot;color: #56b6c2;&quot;&gt;=&lt;/span&gt;&lt;span style=&quot;color: #abb2bf;&quot;&gt; {&lt;/span&gt;&lt;/div&gt;&lt;div style=&quot;color: rgb(171, 178, 191);&quot;&gt;&lt;span style=&quot;color: #abb2bf;&quot;&gt;  shared&lt;/span&gt;&lt;span style=&quot;color: #56b6c2;&quot;&gt;:&lt;/span&gt;&lt;span style=&quot;color: #abb2bf;&quot;&gt; {&lt;/span&gt;&lt;/div&gt;&lt;div style=&quot;color: rgb(171, 178, 191);&quot;&gt;&lt;span style=&quot;color: #abb2bf;&quot;&gt;    pending&lt;/span&gt;&lt;span style=&quot;color: #56b6c2;&quot;&gt;:&lt;/span&gt;&lt;span style=&quot;color: #abb2bf;&quot;&gt; &lt;/span&gt;&lt;span style=&quot;color: #56b6c2;&quot;&gt;null&lt;/span&gt;&lt;span style=&quot;color: #abb2bf;&quot;&gt; &lt;/span&gt;&lt;span style=&quot;color: #56b6c2;&quot;&gt;|&lt;/span&gt;&lt;span style=&quot;color: #abb2bf;&quot;&gt; &lt;/span&gt;&lt;span style=&quot;color: #e5c07b;&quot;&gt;Update&lt;/span&gt;&lt;span style=&quot;color: #abb2bf;&quot;&gt;&amp;lt;&lt;/span&gt;&lt;span style=&quot;color: #e5c07b;&quot;&gt;T&lt;/span&gt;&lt;span style=&quot;color: #abb2bf;&quot;&gt;&amp;gt;&lt;/span&gt;&lt;/div&gt;&lt;div style=&quot;color: rgb(171, 178, 191);&quot;&gt;&lt;span style=&quot;color: #abb2bf;&quot;&gt;  }&lt;/span&gt;&lt;/div&gt;&lt;div style=&quot;&quot;&gt;&lt;span style=&quot;color: rgb(171, 178, 191);&quot;&gt;  dispatch&lt;/span&gt;&lt;span style=&quot;color: rgb(86, 182, 194);&quot;&gt;:&lt;/span&gt;&lt;span style=&quot;color: rgb(171, 178, 191);&quot;&gt;&amp;nbsp;&lt;/span&gt;&lt;font color=&quot;#56b6c2&quot;&gt;dispatchSetState&lt;/font&gt;&lt;/div&gt;&lt;div style=&quot;color: rgb(171, 178, 191);&quot;&gt;&lt;span style=&quot;color: #abb2bf;&quot;&gt;}&lt;/span&gt;&lt;/div&gt;&lt;/div&gt;" style="text;whiteSpace=wrap;html=1;" parent="1" vertex="1">
                    <mxGeometry x="-40" y="450" width="220" height="134" as="geometry"/>
                </mxCell>
                <mxCell id="18" value="updateQueue" style="edgeStyle=none;html=1;entryX=-0.007;entryY=0.092;entryDx=0;entryDy=0;entryPerimeter=0;exitX=1;exitY=0.5;exitDx=0;exitDy=0;" parent="1" source="14" target="11" edge="1">
                    <mxGeometry relative="1" as="geometry"/>
                </mxCell>
                <mxCell id="98" value="next" style="edgeStyle=none;html=1;exitX=0;exitY=1;exitDx=0;exitDy=0;entryX=0;entryY=0;entryDx=0;entryDy=0;" parent="1" source="14" target="95" edge="1">
                    <mxGeometry relative="1" as="geometry"/>
                </mxCell>
                <mxCell id="14" value="&lt;div style=&quot;background-color: rgb(40, 44, 52); font-family: Menlo, Monaco, &amp;quot;Courier New&amp;quot;, monospace; font-weight: normal; font-size: 14px; line-height: 21px;&quot;&gt;&lt;div style=&quot;color: rgb(171, 178, 191);&quot;&gt;&lt;span style=&quot;color: #e5c07b;&quot;&gt;Hook1&lt;/span&gt;&lt;span style=&quot;color: #abb2bf;&quot;&gt;&amp;nbsp;{&lt;/span&gt;&lt;/div&gt;&lt;div style=&quot;&quot;&gt;&lt;span style=&quot;color: rgb(171, 178, 191);&quot;&gt;  memoizedState&lt;/span&gt;&lt;span style=&quot;color: rgb(86, 182, 194);&quot;&gt;:&lt;/span&gt;&lt;span style=&quot;color: rgb(171, 178, 191);&quot;&gt;&amp;nbsp;&lt;/span&gt;&lt;font color=&quot;#ff3333&quot;&gt;0&lt;/font&gt;&lt;span style=&quot;color: rgb(171, 178, 191);&quot;&gt;&amp;nbsp;//&lt;/span&gt;&lt;font color=&quot;#56b6c2&quot;&gt;initialState |&amp;nbsp;&lt;/font&gt;&lt;span style=&quot;color: rgb(86, 182, 194);&quot;&gt;initialState()&lt;/span&gt;&lt;/div&gt;&lt;div style=&quot;color: rgb(171, 178, 191);&quot;&gt;&lt;span style=&quot;color: #abb2bf;&quot;&gt;  updateQueue&lt;/span&gt;&lt;span style=&quot;color: #56b6c2;&quot;&gt;:&lt;/span&gt;&lt;span style=&quot;color: #abb2bf;&quot;&gt; &lt;/span&gt;&lt;span style=&quot;color: #e5c07b;&quot;&gt;UpdateQueue&lt;/span&gt;&lt;span style=&quot;color: #abb2bf;&quot;&gt; &lt;/span&gt;&lt;span style=&quot;color: #56b6c2;&quot;&gt;|&lt;/span&gt;&lt;span style=&quot;color: #abb2bf;&quot;&gt; &lt;/span&gt;&lt;span style=&quot;color: #56b6c2;&quot;&gt;null&lt;/span&gt;&lt;/div&gt;&lt;div style=&quot;color: rgb(171, 178, 191);&quot;&gt;&lt;span style=&quot;color: #abb2bf;&quot;&gt;  next&lt;/span&gt;&lt;span style=&quot;color: #56b6c2;&quot;&gt;:&lt;/span&gt;&lt;span style=&quot;color: #abb2bf;&quot;&gt; &lt;/span&gt;&lt;span style=&quot;color: #e5c07b;&quot;&gt;Hook2&lt;/span&gt;&lt;/div&gt;&lt;div style=&quot;color: rgb(171, 178, 191);&quot;&gt;&lt;span style=&quot;color: #abb2bf;&quot;&gt;}&lt;/span&gt;&lt;/div&gt;&lt;/div&gt;" style="text;whiteSpace=wrap;html=1;" parent="1" vertex="1">
                    <mxGeometry x="-600" y="430" width="400" height="120" as="geometry"/>
                </mxCell>
                <mxCell id="16" style="edgeStyle=none;html=1;entryX=-0.016;entryY=0.124;entryDx=0;entryDy=0;entryPerimeter=0;" parent="1" source="15" target="14" edge="1">
                    <mxGeometry relative="1" as="geometry"/>
                </mxCell>
                <mxCell id="17" value="&lt;div style=&quot;color: rgb(171, 178, 191); background-color: rgb(40, 44, 52); font-family: Menlo, Monaco, &amp;quot;Courier New&amp;quot;, monospace; font-size: 14px; line-height: 21px;&quot;&gt;&lt;span style=&quot;color: #e06c75;&quot;&gt;memoizedState&lt;/span&gt;&lt;/div&gt;" style="edgeLabel;html=1;align=center;verticalAlign=middle;resizable=0;points=[];" parent="16" vertex="1" connectable="0">
                    <mxGeometry x="-0.3374" y="2" relative="1" as="geometry">
                        <mxPoint x="17" y="-4" as="offset"/>
                    </mxGeometry>
                </mxCell>
                <mxCell id="89" value="&lt;div style=&quot;color: rgb(171, 178, 191); background-color: rgb(40, 44, 52); font-family: Menlo, Monaco, &amp;quot;Courier New&amp;quot;, monospace; line-height: 21px;&quot;&gt;&lt;font style=&quot;font-size: 18px;&quot;&gt;updateQueue&lt;/font&gt;&lt;/div&gt;" style="edgeStyle=none;html=1;entryX=0.75;entryY=0;entryDx=0;entryDy=0;" parent="1" source="15" target="91" edge="1">
                    <mxGeometry relative="1" as="geometry">
                        <mxPoint x="-270" y="235" as="targetPoint"/>
                    </mxGeometry>
                </mxCell>
                <mxCell id="15" value="hooksFiber" style="ellipse;whiteSpace=wrap;html=1;" parent="1" vertex="1">
                    <mxGeometry x="-610" y="240" width="80" height="80" as="geometry"/>
                </mxCell>
                <mxCell id="21" value="&lt;div style=&quot;color: rgb(171, 178, 191); background-color: rgb(40, 44, 52); font-family: Menlo, Monaco, &amp;quot;Courier New&amp;quot;, monospace; font-size: 14px; line-height: 21px;&quot;&gt;&lt;span style=&quot;color: #61afef;&quot;&gt;createUpdateQueue()&lt;/span&gt;&lt;/div&gt;" style="shape=parallelogram;perimeter=parallelogramPerimeter;whiteSpace=wrap;html=1;fixedSize=1;" parent="1" vertex="1">
                    <mxGeometry x="140" y="330" width="200" height="60" as="geometry"/>
                </mxCell>
                <mxCell id="24" value="" style="edgeStyle=none;orthogonalLoop=1;jettySize=auto;html=1;shape=flexArrow;rounded=1;startSize=8;endSize=17.588235294117645;exitX=0.336;exitY=1.023;exitDx=0;exitDy=0;exitPerimeter=0;width=16.47058823529412;entryX=0.585;entryY=-0.008;entryDx=0;entryDy=0;entryPerimeter=0;" parent="1" source="21" target="11" edge="1">
                    <mxGeometry width="100" relative="1" as="geometry">
                        <mxPoint x="330" y="670" as="sourcePoint"/>
                        <mxPoint x="140" y="650" as="targetPoint"/>
                        <Array as="points"/>
                    </mxGeometry>
                </mxCell>
                <mxCell id="39" style="edgeStyle=none;html=1;entryX=0.358;entryY=1.04;entryDx=0;entryDy=0;dashed=1;fontSize=20;exitX=0.242;exitY=0;exitDx=0;exitDy=0;exitPerimeter=0;entryPerimeter=0;" parent="1" source="94" target="14" edge="1">
                    <mxGeometry relative="1" as="geometry">
                        <mxPoint x="-400" y="740" as="sourcePoint"/>
                    </mxGeometry>
                </mxCell>
                <mxCell id="100" style="edgeStyle=none;html=1;fontSize=18;" parent="1" source="57" edge="1">
                    <mxGeometry relative="1" as="geometry">
                        <mxPoint x="-610" y="1010" as="targetPoint"/>
                    </mxGeometry>
                </mxCell>
                <mxCell id="57" value="&lt;div style=&quot;color: rgb(171, 178, 191); background-color: rgb(40, 44, 52); font-family: Menlo, Monaco, &amp;quot;Courier New&amp;quot;, monospace; font-size: 14px; line-height: 21px;&quot;&gt;workInProgressHook&lt;/div&gt;" style="ellipse;whiteSpace=wrap;html=1;fontSize=20;fontColor=#FFFFFF;" parent="1" vertex="1">
                    <mxGeometry x="-790" y="1085" width="180" height="70" as="geometry"/>
                </mxCell>
                <mxCell id="59" value="" style="edgeStyle=segmentEdgeStyle;endArrow=classic;html=1;curved=0;rounded=0;endSize=8;startSize=8;sourcePerimeterSpacing=0;targetPerimeterSpacing=0;fontSize=20;fontColor=#FFFFFF;entryX=0.065;entryY=1.02;entryDx=0;entryDy=0;entryPerimeter=0;" parent="1" edge="1">
                    <mxGeometry width="100" relative="1" as="geometry">
                        <mxPoint x="399.99999999999955" y="940" as="sourcePoint"/>
                        <mxPoint x="450" y="1010" as="targetPoint"/>
                        <Array as="points">
                            <mxPoint x="400" y="1130"/>
                            <mxPoint x="-238" y="1130"/>
                        </Array>
                    </mxGeometry>
                </mxCell>
                <mxCell id="60" value="next" style="edgeLabel;html=1;align=center;verticalAlign=middle;resizable=0;points=[];fontSize=20;fontColor=#FFFFFF;" parent="59" vertex="1" connectable="0">
                    <mxGeometry x="0.1521" y="4" relative="1" as="geometry">
                        <mxPoint as="offset"/>
                    </mxGeometry>
                </mxCell>
                <mxCell id="107" value="next" style="edgeStyle=none;html=1;entryX=0.076;entryY=0;entryDx=0;entryDy=0;entryPerimeter=0;fontSize=18;exitX=0;exitY=1;exitDx=0;exitDy=0;" parent="1" source="90" target="105" edge="1">
                    <mxGeometry relative="1" as="geometry"/>
                </mxCell>
                <mxCell id="90" value="&lt;div style=&quot;background-color: rgb(40, 44, 52); font-family: Menlo, Monaco, &amp;quot;Courier New&amp;quot;, monospace; font-weight: normal; font-size: 14px; line-height: 21px;&quot;&gt;&lt;div style=&quot;&quot;&gt;&lt;font color=&quot;#e5c07b&quot;&gt;effect1&lt;/font&gt;&lt;span style=&quot;color: rgb(171, 178, 191);&quot;&gt;&amp;nbsp;&lt;/span&gt;&lt;span style=&quot;color: rgb(86, 182, 194);&quot;&gt;=&lt;/span&gt;&lt;span style=&quot;color: rgb(171, 178, 191);&quot;&gt; {&lt;/span&gt;&lt;/div&gt;&lt;div style=&quot;color: rgb(171, 178, 191);&quot;&gt;&lt;span style=&quot;color: #abb2bf;&quot;&gt;&lt;/span&gt;&lt;span style=&quot;color: #e06c75;&quot;&gt;&amp;nbsp; tag&lt;/span&gt;&lt;span style=&quot;color: #56b6c2;&quot;&gt;:&lt;/span&gt;&lt;span style=&quot;color: #abb2bf;&quot;&gt;&amp;nbsp;3,&lt;/span&gt;&lt;/div&gt;&lt;div style=&quot;color: rgb(171, 178, 191);&quot;&gt;&lt;span style=&quot;color: #abb2bf;&quot;&gt;&amp;nbsp; create=function1,&lt;/span&gt;&lt;/div&gt;&lt;div style=&quot;color: rgb(171, 178, 191);&quot;&gt;&lt;span style=&quot;color: #abb2bf;&quot;&gt;&amp;nbsp; destroy=null,&lt;/span&gt;&lt;/div&gt;&lt;div style=&quot;color: rgb(171, 178, 191);&quot;&gt;&lt;span style=&quot;color: #abb2bf;&quot;&gt;&amp;nbsp; deps=null,&lt;/span&gt;&lt;/div&gt;&lt;div style=&quot;color: rgb(171, 178, 191);&quot;&gt;&lt;span style=&quot;color: #abb2bf;&quot;&gt;&lt;/span&gt;&lt;span style=&quot;color: #e06c75;&quot;&gt;&amp;nbsp; next&lt;/span&gt;&lt;span style=&quot;color: #56b6c2;&quot;&gt;:&lt;/span&gt;&lt;span style=&quot;color: #abb2bf;&quot;&gt;&amp;nbsp;&lt;/span&gt;&lt;span style=&quot;color: rgb(229, 192, 123);&quot;&gt;effect2&lt;/span&gt;&lt;/div&gt;&lt;div style=&quot;color: rgb(171, 178, 191);&quot;&gt;}&lt;/div&gt;&lt;/div&gt;" style="text;whiteSpace=wrap;html=1;" parent="1" vertex="1">
                    <mxGeometry x="-1080" y="520" width="170" height="160" as="geometry"/>
                </mxCell>
                <mxCell id="92" value="&lt;font style=&quot;font-size: 18px;&quot;&gt;lastEffect&lt;/font&gt;" style="edgeStyle=none;html=1;exitX=0.5;exitY=1;exitDx=0;exitDy=0;entryX=0;entryY=0.114;entryDx=0;entryDy=0;entryPerimeter=0;" parent="1" source="91" target="113" edge="1">
                    <mxGeometry x="-0.8407" y="16" relative="1" as="geometry">
                        <mxPoint x="100" y="180" as="targetPoint"/>
                        <mxPoint as="offset"/>
                    </mxGeometry>
                </mxCell>
                <mxCell id="91" value="&lt;div style=&quot;border-color: rgb(0, 0, 0); color: rgb(171, 178, 191); font-family: Menlo, Monaco, &amp;quot;Courier New&amp;quot;, monospace; font-size: 14px; font-style: normal; font-variant-ligatures: normal; font-variant-caps: normal; font-weight: 400; letter-spacing: normal; orphans: 2; text-align: left; text-indent: 0px; text-transform: none; widows: 2; word-spacing: 0px; -webkit-text-stroke-width: 0px; background-color: rgb(40, 44, 52); text-decoration-thickness: initial; text-decoration-style: initial; text-decoration-color: initial;&quot;&gt;&lt;span style=&quot;color: rgb(209, 154, 102);&quot;&gt;updateQueue&lt;/span&gt;={&lt;/div&gt;&lt;div style=&quot;border-color: rgb(0, 0, 0); color: rgb(171, 178, 191); font-family: Menlo, Monaco, &amp;quot;Courier New&amp;quot;, monospace; font-size: 14px; font-style: normal; font-variant-ligatures: normal; font-variant-caps: normal; font-weight: 400; letter-spacing: normal; orphans: 2; text-align: left; text-indent: 0px; text-transform: none; widows: 2; word-spacing: 0px; -webkit-text-stroke-width: 0px; background-color: rgb(40, 44, 52); text-decoration-thickness: initial; text-decoration-style: initial; text-decoration-color: initial;&quot;&gt;shared&lt;span style=&quot;border-color: rgb(0, 0, 0); color: rgb(86, 182, 194);&quot;&gt;:&lt;/span&gt;&lt;span&gt;&amp;nbsp;&lt;/span&gt;{&lt;/div&gt;&lt;div style=&quot;border-color: rgb(0, 0, 0); color: rgb(171, 178, 191); font-family: Menlo, Monaco, &amp;quot;Courier New&amp;quot;, monospace; font-size: 14px; font-style: normal; font-variant-ligatures: normal; font-variant-caps: normal; font-weight: 400; letter-spacing: normal; orphans: 2; text-align: left; text-indent: 0px; text-transform: none; widows: 2; word-spacing: 0px; -webkit-text-stroke-width: 0px; background-color: rgb(40, 44, 52); text-decoration-thickness: initial; text-decoration-style: initial; text-decoration-color: initial;&quot;&gt;pending&lt;span style=&quot;border-color: rgb(0, 0, 0); color: rgb(86, 182, 194);&quot;&gt;:&lt;/span&gt;&lt;span&gt;&amp;nbsp;&lt;/span&gt;&lt;span style=&quot;border-color: rgb(0, 0, 0); color: rgb(86, 182, 194);&quot;&gt;null&lt;/span&gt;&lt;span&gt;&amp;nbsp;&lt;/span&gt;&lt;span style=&quot;border-color: rgb(0, 0, 0); color: rgb(86, 182, 194);&quot;&gt;|&lt;/span&gt;&lt;span&gt;&amp;nbsp;&lt;/span&gt;&lt;span style=&quot;border-color: rgb(0, 0, 0); color: rgb(229, 192, 123);&quot;&gt;Update&lt;/span&gt;&amp;lt;&lt;span style=&quot;border-color: rgb(0, 0, 0); color: rgb(229, 192, 123);&quot;&gt;T&lt;/span&gt;&amp;gt;&lt;/div&gt;&lt;div style=&quot;border-color: rgb(0, 0, 0); color: rgb(171, 178, 191); font-family: Menlo, Monaco, &amp;quot;Courier New&amp;quot;, monospace; font-size: 14px; font-style: normal; font-variant-ligatures: normal; font-variant-caps: normal; font-weight: 400; letter-spacing: normal; orphans: 2; text-align: left; text-indent: 0px; text-transform: none; widows: 2; word-spacing: 0px; -webkit-text-stroke-width: 0px; background-color: rgb(40, 44, 52); text-decoration-thickness: initial; text-decoration-style: initial; text-decoration-color: initial;&quot;&gt;}&lt;/div&gt;&lt;div style=&quot;border-color: rgb(0, 0, 0); color: rgb(171, 178, 191); font-family: Menlo, Monaco, &amp;quot;Courier New&amp;quot;, monospace; font-size: 14px; font-style: normal; font-variant-ligatures: normal; font-variant-caps: normal; font-weight: 400; letter-spacing: normal; orphans: 2; text-align: left; text-indent: 0px; text-transform: none; widows: 2; word-spacing: 0px; -webkit-text-stroke-width: 0px; background-color: rgb(40, 44, 52); text-decoration-thickness: initial; text-decoration-style: initial; text-decoration-color: initial;&quot;&gt;dispatch&lt;span style=&quot;border-color: rgb(0, 0, 0); color: rgb(86, 182, 194);&quot;&gt;:&lt;/span&gt;&lt;span&gt;&amp;nbsp;&lt;/span&gt;&lt;span style=&quot;border-color: rgb(0, 0, 0); color: rgb(86, 182, 194);&quot;&gt;null&lt;/span&gt;&lt;/div&gt;&lt;div style=&quot;border-color: rgb(0, 0, 0); color: rgb(171, 178, 191); font-family: Menlo, Monaco, &amp;quot;Courier New&amp;quot;, monospace; font-size: 14px; font-style: normal; font-variant-ligatures: normal; font-variant-caps: normal; font-weight: 400; letter-spacing: normal; orphans: 2; text-align: left; text-indent: 0px; text-transform: none; widows: 2; word-spacing: 0px; -webkit-text-stroke-width: 0px; background-color: rgb(40, 44, 52); text-decoration-thickness: initial; text-decoration-style: initial; text-decoration-color: initial;&quot;&gt;&lt;div style=&quot;border-color: rgb(0, 0, 0); line-height: 21px;&quot;&gt;lastEffect: effect1&lt;/div&gt;&lt;/div&gt;&lt;div style=&quot;border-color: rgb(0, 0, 0); color: rgb(171, 178, 191); font-family: Menlo, Monaco, &amp;quot;Courier New&amp;quot;, monospace; font-size: 14px; font-style: normal; font-variant-ligatures: normal; font-variant-caps: normal; font-weight: 400; letter-spacing: normal; orphans: 2; text-align: left; text-indent: 0px; text-transform: none; widows: 2; word-spacing: 0px; -webkit-text-stroke-width: 0px; background-color: rgb(40, 44, 52); text-decoration-thickness: initial; text-decoration-style: initial; text-decoration-color: initial;&quot;&gt;}&lt;/div&gt;" style="text;whiteSpace=wrap;html=1;" parent="1" vertex="1">
                    <mxGeometry x="-1300" y="295" width="210" height="135" as="geometry"/>
                </mxCell>
                <mxCell id="94" value="&lt;font style=&quot;font-size: 20px;&quot;&gt;const [num, setNum] = useState(0)&lt;/font&gt;" style="text;html=1;align=center;verticalAlign=middle;resizable=0;points=[];autosize=1;strokeColor=#6F0000;fillColor=#a20025;fontColor=#ffffff;" parent="1" vertex="1">
                    <mxGeometry x="-440" y="560" width="330" height="40" as="geometry"/>
                </mxCell>
                <mxCell id="99" value="&lt;font style=&quot;font-size: 18px;&quot;&gt;memoizedState&lt;/font&gt;" style="edgeStyle=none;html=1;entryX=1.019;entryY=0.705;entryDx=0;entryDy=0;exitX=0;exitY=0.25;exitDx=0;exitDy=0;entryPerimeter=0;" parent="1" source="95" target="90" edge="1">
                    <mxGeometry relative="1" as="geometry">
                        <mxPoint x="-980" y="310" as="targetPoint"/>
                    </mxGeometry>
                </mxCell>
                <mxCell id="103" style="edgeStyle=none;html=1;entryX=0;entryY=0;entryDx=0;entryDy=0;fontSize=18;exitX=0.038;exitY=1.024;exitDx=0;exitDy=0;exitPerimeter=0;" parent="1" source="95" target="102" edge="1">
                    <mxGeometry relative="1" as="geometry"/>
                </mxCell>
                <mxCell id="95" value="&lt;div style=&quot;background-color: rgb(40, 44, 52); font-family: Menlo, Monaco, &amp;quot;Courier New&amp;quot;, monospace; font-weight: normal; font-size: 14px; line-height: 21px;&quot;&gt;&lt;div style=&quot;color: rgb(171, 178, 191);&quot;&gt;&lt;span style=&quot;color: #e5c07b;&quot;&gt;Hook2&lt;/span&gt;&lt;span style=&quot;color: #abb2bf;&quot;&gt;&amp;nbsp;{&lt;/span&gt;&lt;/div&gt;&lt;div style=&quot;&quot;&gt;&lt;span style=&quot;color: rgb(171, 178, 191);&quot;&gt;  memoizedState&lt;/span&gt;&lt;span style=&quot;color: rgb(86, 182, 194);&quot;&gt;:&lt;/span&gt;&lt;span style=&quot;color: rgb(171, 178, 191);&quot;&gt;&amp;nbsp;&lt;/span&gt;&lt;font color=&quot;#ff3333&quot;&gt;effect1&lt;/font&gt;&lt;/div&gt;&lt;div style=&quot;color: rgb(171, 178, 191);&quot;&gt;&lt;span style=&quot;color: #abb2bf;&quot;&gt;  updateQueue&lt;/span&gt;&lt;span style=&quot;color: #56b6c2;&quot;&gt;:&lt;/span&gt;&lt;span style=&quot;color: #abb2bf;&quot;&gt;&amp;nbsp;&lt;/span&gt;&lt;span style=&quot;color: #56b6c2;&quot;&gt;null&lt;/span&gt;&lt;/div&gt;&lt;div style=&quot;&quot;&gt;&lt;span style=&quot;color: rgb(171, 178, 191);&quot;&gt;  next&lt;/span&gt;&lt;span style=&quot;color: rgb(86, 182, 194);&quot;&gt;:&lt;/span&gt;&lt;span style=&quot;color: rgb(171, 178, 191);&quot;&gt;&amp;nbsp;&lt;/span&gt;&lt;font color=&quot;#e5c07b&quot;&gt;Hook3&lt;/font&gt;&lt;/div&gt;&lt;div style=&quot;color: rgb(171, 178, 191);&quot;&gt;&lt;span style=&quot;color: #abb2bf;&quot;&gt;}&lt;/span&gt;&lt;/div&gt;&lt;/div&gt;" style="text;whiteSpace=wrap;html=1;" parent="1" vertex="1">
                    <mxGeometry x="-600" y="620" width="180" height="110" as="geometry"/>
                </mxCell>
                <mxCell id="97" style="edgeStyle=none;html=1;" parent="1" source="96" target="95" edge="1">
                    <mxGeometry relative="1" as="geometry">
                        <mxPoint x="-572" y="729" as="targetPoint"/>
                    </mxGeometry>
                </mxCell>
                <mxCell id="96" value="&lt;font style=&quot;font-size: 20px;&quot;&gt;useEffect(function1 ()=&amp;gt;{})&lt;/font&gt;" style="text;html=1;align=center;verticalAlign=middle;resizable=0;points=[];autosize=1;strokeColor=#6F0000;fillColor=#a20025;fontColor=#ffffff;" parent="1" vertex="1">
                    <mxGeometry x="-470" y="730" width="260" height="40" as="geometry"/>
                </mxCell>
                <mxCell id="104" style="edgeStyle=none;html=1;fontSize=18;" parent="1" source="101" target="102" edge="1">
                    <mxGeometry relative="1" as="geometry"/>
                </mxCell>
                <mxCell id="101" value="&lt;font style=&quot;font-size: 20px;&quot;&gt;useEffect(function2 ()=&amp;gt;{})&lt;/font&gt;" style="text;html=1;align=center;verticalAlign=middle;resizable=0;points=[];autosize=1;strokeColor=#6F0000;fillColor=#a20025;fontColor=#ffffff;" parent="1" vertex="1">
                    <mxGeometry x="-500" y="900" width="260" height="40" as="geometry"/>
                </mxCell>
                <mxCell id="112" style="edgeStyle=none;html=1;entryX=0;entryY=0;entryDx=0;entryDy=0;fontSize=18;exitX=0;exitY=1;exitDx=0;exitDy=0;" parent="1" source="102" target="110" edge="1">
                    <mxGeometry relative="1" as="geometry"/>
                </mxCell>
                <mxCell id="102" value="&lt;div style=&quot;background-color: rgb(40, 44, 52); font-family: Menlo, Monaco, &amp;quot;Courier New&amp;quot;, monospace; font-weight: normal; font-size: 14px; line-height: 21px;&quot;&gt;&lt;div style=&quot;color: rgb(171, 178, 191);&quot;&gt;&lt;span style=&quot;color: #e5c07b;&quot;&gt;Hook3&lt;/span&gt;&lt;span style=&quot;color: #abb2bf;&quot;&gt;&amp;nbsp;{&lt;/span&gt;&lt;/div&gt;&lt;div style=&quot;&quot;&gt;&lt;span style=&quot;color: rgb(171, 178, 191);&quot;&gt;  memoizedState&lt;/span&gt;&lt;span style=&quot;color: rgb(86, 182, 194);&quot;&gt;:&lt;/span&gt;&lt;span style=&quot;color: rgb(171, 178, 191);&quot;&gt;&amp;nbsp;&lt;/span&gt;&lt;font color=&quot;#ff3333&quot;&gt;effect2&lt;/font&gt;&lt;/div&gt;&lt;div style=&quot;color: rgb(171, 178, 191);&quot;&gt;&lt;span style=&quot;color: #abb2bf;&quot;&gt;  updateQueue&lt;/span&gt;&lt;span style=&quot;color: #56b6c2;&quot;&gt;:&lt;/span&gt;&lt;span style=&quot;color: #abb2bf;&quot;&gt;&amp;nbsp;&lt;/span&gt;&lt;span style=&quot;color: #56b6c2;&quot;&gt;null&lt;/span&gt;&lt;/div&gt;&lt;div style=&quot;&quot;&gt;&lt;span style=&quot;color: rgb(171, 178, 191);&quot;&gt;  next&lt;/span&gt;&lt;span style=&quot;color: rgb(86, 182, 194);&quot;&gt;:&lt;/span&gt;&lt;span style=&quot;color: rgb(171, 178, 191);&quot;&gt;&amp;nbsp;&lt;/span&gt;&lt;font color=&quot;#e5c07b&quot;&gt;Hook4&lt;/font&gt;&lt;/div&gt;&lt;div style=&quot;color: rgb(171, 178, 191);&quot;&gt;&lt;span style=&quot;color: #abb2bf;&quot;&gt;}&lt;/span&gt;&lt;/div&gt;&lt;/div&gt;" style="text;whiteSpace=wrap;html=1;" parent="1" vertex="1">
                    <mxGeometry x="-600" y="770" width="160" height="120" as="geometry"/>
                </mxCell>
                <mxCell id="108" value="next" style="edgeStyle=none;html=1;fontSize=18;exitX=-0.034;exitY=0.409;exitDx=0;exitDy=0;exitPerimeter=0;entryX=0;entryY=0.5;entryDx=0;entryDy=0;" parent="1" edge="1" target="90" source="113">
                    <mxGeometry x="0.1636" y="6" relative="1" as="geometry">
                        <mxPoint x="-1150" y="720" as="targetPoint"/>
                        <mxPoint x="-1090" y="1100" as="sourcePoint"/>
                        <mxPoint as="offset"/>
                        <Array as="points">
                            <mxPoint x="-1230" y="740"/>
                        </Array>
                    </mxGeometry>
                </mxCell>
                <mxCell id="114" style="edgeStyle=none;html=1;exitX=0;exitY=1;exitDx=0;exitDy=0;entryX=0.25;entryY=0;entryDx=0;entryDy=0;fontSize=18;" parent="1" source="105" target="113" edge="1">
                    <mxGeometry relative="1" as="geometry"/>
                </mxCell>
                <mxCell id="115" value="next" style="edgeLabel;html=1;align=center;verticalAlign=middle;resizable=0;points=[];fontSize=18;" parent="114" vertex="1" connectable="0">
                    <mxGeometry x="-0.1666" y="-1" relative="1" as="geometry">
                        <mxPoint as="offset"/>
                    </mxGeometry>
                </mxCell>
                <mxCell id="105" value="&lt;div style=&quot;background-color: rgb(40, 44, 52); font-family: Menlo, Monaco, &amp;quot;Courier New&amp;quot;, monospace; font-weight: normal; font-size: 14px; line-height: 21px;&quot;&gt;&lt;div style=&quot;&quot;&gt;&lt;font color=&quot;#e5c07b&quot;&gt;effect2&lt;/font&gt;&lt;span style=&quot;color: rgb(171, 178, 191);&quot;&gt;&amp;nbsp;&lt;/span&gt;&lt;span style=&quot;color: rgb(86, 182, 194);&quot;&gt;=&lt;/span&gt;&lt;span style=&quot;color: rgb(171, 178, 191);&quot;&gt; {&lt;/span&gt;&lt;/div&gt;&lt;div style=&quot;color: rgb(171, 178, 191);&quot;&gt;&lt;span style=&quot;color: #abb2bf;&quot;&gt;&lt;/span&gt;&lt;span style=&quot;color: #e06c75;&quot;&gt;&amp;nbsp; tag&lt;/span&gt;&lt;span style=&quot;color: #56b6c2;&quot;&gt;:&lt;/span&gt;&lt;span style=&quot;color: #abb2bf;&quot;&gt;&amp;nbsp;3,&lt;/span&gt;&lt;/div&gt;&lt;div style=&quot;color: rgb(171, 178, 191);&quot;&gt;&lt;span style=&quot;color: #abb2bf;&quot;&gt;&amp;nbsp; create=function2,&lt;/span&gt;&lt;/div&gt;&lt;div style=&quot;color: rgb(171, 178, 191);&quot;&gt;&lt;span style=&quot;color: #abb2bf;&quot;&gt;&amp;nbsp; destroy=null,&lt;/span&gt;&lt;/div&gt;&lt;div style=&quot;color: rgb(171, 178, 191);&quot;&gt;&lt;span style=&quot;color: #abb2bf;&quot;&gt;&amp;nbsp; deps=null,&lt;/span&gt;&lt;/div&gt;&lt;div style=&quot;color: rgb(171, 178, 191);&quot;&gt;&lt;span style=&quot;color: #abb2bf;&quot;&gt;&lt;/span&gt;&lt;span style=&quot;color: #e06c75;&quot;&gt;&amp;nbsp; next&lt;/span&gt;&lt;span style=&quot;color: #56b6c2;&quot;&gt;:&lt;/span&gt;&lt;span style=&quot;color: #abb2bf;&quot;&gt;&amp;nbsp;&lt;/span&gt;&lt;span style=&quot;color: rgb(229, 192, 123);&quot;&gt;effect3&lt;/span&gt;&lt;/div&gt;&lt;div style=&quot;color: rgb(171, 178, 191);&quot;&gt;}&lt;/div&gt;&lt;/div&gt;" style="text;whiteSpace=wrap;html=1;" parent="1" vertex="1">
                    <mxGeometry x="-1080" y="730" width="170" height="160" as="geometry"/>
                </mxCell>
                <mxCell id="109" value="&lt;font style=&quot;font-size: 18px;&quot;&gt;memoizedState&lt;/font&gt;" style="edgeStyle=none;html=1;" parent="1" target="105" edge="1">
                    <mxGeometry relative="1" as="geometry">
                        <mxPoint x="-966.77" y="672.8" as="targetPoint"/>
                        <mxPoint x="-610" y="800" as="sourcePoint"/>
                    </mxGeometry>
                </mxCell>
                <mxCell id="110" value="&lt;div style=&quot;background-color: rgb(40, 44, 52); font-family: Menlo, Monaco, &amp;quot;Courier New&amp;quot;, monospace; font-weight: normal; font-size: 14px; line-height: 21px;&quot;&gt;&lt;div style=&quot;color: rgb(171, 178, 191);&quot;&gt;&lt;span style=&quot;color: #e5c07b;&quot;&gt;Hook4&lt;/span&gt;&lt;span style=&quot;color: #abb2bf;&quot;&gt;&amp;nbsp;{&lt;/span&gt;&lt;/div&gt;&lt;div style=&quot;&quot;&gt;&lt;span style=&quot;color: rgb(171, 178, 191);&quot;&gt;  memoizedState&lt;/span&gt;&lt;span style=&quot;color: rgb(86, 182, 194);&quot;&gt;:&lt;/span&gt;&lt;span style=&quot;color: rgb(171, 178, 191);&quot;&gt;&amp;nbsp;&lt;/span&gt;&lt;font color=&quot;#ff3333&quot;&gt;effect3&lt;/font&gt;&lt;/div&gt;&lt;div style=&quot;color: rgb(171, 178, 191);&quot;&gt;&lt;span style=&quot;color: #abb2bf;&quot;&gt;  updateQueue&lt;/span&gt;&lt;span style=&quot;color: #56b6c2;&quot;&gt;:&lt;/span&gt;&lt;span style=&quot;color: #abb2bf;&quot;&gt;&amp;nbsp;&lt;/span&gt;&lt;span style=&quot;color: #56b6c2;&quot;&gt;null&lt;/span&gt;&lt;/div&gt;&lt;div style=&quot;&quot;&gt;&lt;span style=&quot;color: rgb(171, 178, 191);&quot;&gt;  next&lt;/span&gt;&lt;span style=&quot;color: rgb(86, 182, 194);&quot;&gt;:&lt;/span&gt;&lt;span style=&quot;color: rgb(171, 178, 191);&quot;&gt;&amp;nbsp;&lt;/span&gt;&lt;font color=&quot;#e5c07b&quot;&gt;null&lt;/font&gt;&lt;/div&gt;&lt;div style=&quot;color: rgb(171, 178, 191);&quot;&gt;&lt;span style=&quot;color: #abb2bf;&quot;&gt;}&lt;/span&gt;&lt;/div&gt;&lt;/div&gt;" style="text;whiteSpace=wrap;html=1;" parent="1" vertex="1">
                    <mxGeometry x="-600" y="950" width="160" height="120" as="geometry"/>
                </mxCell>
                <mxCell id="111" value="&lt;font style=&quot;font-size: 20px;&quot;&gt;useEffect(function3 ()=&amp;gt;{})&lt;/font&gt;" style="text;html=1;align=center;verticalAlign=middle;resizable=0;points=[];autosize=1;strokeColor=#6F0000;fillColor=#a20025;fontColor=#ffffff;" parent="1" vertex="1">
                    <mxGeometry x="-480" y="1100" width="260" height="40" as="geometry"/>
                </mxCell>
                <mxCell id="113" value="&lt;div style=&quot;background-color: rgb(40, 44, 52); font-family: Menlo, Monaco, &amp;quot;Courier New&amp;quot;, monospace; font-weight: normal; font-size: 14px; line-height: 21px;&quot;&gt;&lt;div style=&quot;&quot;&gt;&lt;font color=&quot;#e5c07b&quot;&gt;effect3&lt;/font&gt;&lt;span style=&quot;color: rgb(171, 178, 191);&quot;&gt;&amp;nbsp;&lt;/span&gt;&lt;span style=&quot;color: rgb(86, 182, 194);&quot;&gt;=&lt;/span&gt;&lt;span style=&quot;color: rgb(171, 178, 191);&quot;&gt; {&lt;/span&gt;&lt;/div&gt;&lt;div style=&quot;color: rgb(171, 178, 191);&quot;&gt;&lt;span style=&quot;color: #abb2bf;&quot;&gt;&lt;/span&gt;&lt;span style=&quot;color: #e06c75;&quot;&gt;&amp;nbsp; tag&lt;/span&gt;&lt;span style=&quot;color: #56b6c2;&quot;&gt;:&lt;/span&gt;&lt;span style=&quot;color: #abb2bf;&quot;&gt;&amp;nbsp;3,&lt;/span&gt;&lt;/div&gt;&lt;div style=&quot;color: rgb(171, 178, 191);&quot;&gt;&lt;span style=&quot;color: #abb2bf;&quot;&gt;&amp;nbsp; create=function3,&lt;/span&gt;&lt;/div&gt;&lt;div style=&quot;color: rgb(171, 178, 191);&quot;&gt;&lt;span style=&quot;color: #abb2bf;&quot;&gt;&amp;nbsp; destroy=null,&lt;/span&gt;&lt;/div&gt;&lt;div style=&quot;color: rgb(171, 178, 191);&quot;&gt;&lt;span style=&quot;color: #abb2bf;&quot;&gt;&amp;nbsp; deps=null,&lt;/span&gt;&lt;/div&gt;&lt;div style=&quot;color: rgb(171, 178, 191);&quot;&gt;&lt;span style=&quot;color: #abb2bf;&quot;&gt;&lt;/span&gt;&lt;span style=&quot;color: #e06c75;&quot;&gt;&amp;nbsp; next&lt;/span&gt;&lt;span style=&quot;color: #56b6c2;&quot;&gt;:&lt;/span&gt;&lt;span style=&quot;color: #abb2bf;&quot;&gt;&amp;nbsp;&lt;/span&gt;&lt;span style=&quot;color: rgb(229, 192, 123);&quot;&gt;effect1&lt;/span&gt;&lt;/div&gt;&lt;div style=&quot;color: rgb(171, 178, 191);&quot;&gt;}&lt;/div&gt;&lt;/div&gt;" style="text;whiteSpace=wrap;html=1;" parent="1" vertex="1">
                    <mxGeometry x="-1080" y="950" width="170" height="160" as="geometry"/>
                </mxCell>
                <mxCell id="116" value="&lt;font style=&quot;font-size: 18px;&quot;&gt;memoizedState&lt;/font&gt;" style="edgeStyle=none;html=1;exitX=0;exitY=0.25;exitDx=0;exitDy=0;" parent="1" source="110" target="113" edge="1">
                    <mxGeometry relative="1" as="geometry">
                        <mxPoint x="-900" y="848.9610389610391" as="targetPoint"/>
                        <mxPoint x="-600" y="810" as="sourcePoint"/>
                    </mxGeometry>
                </mxCell>
                <mxCell id="119" value="pendingPassiveEffect.update" style="edgeStyle=none;html=1;fontSize=24;" parent="1" source="117" edge="1">
                    <mxGeometry relative="1" as="geometry">
                        <mxPoint x="-1480" y="710" as="targetPoint"/>
                    </mxGeometry>
                </mxCell>
                <mxCell id="117" value="&lt;font style=&quot;font-size: 24px;&quot;&gt;FiberRoot&lt;/font&gt;" style="ellipse;whiteSpace=wrap;html=1;fillColor=#60a917;fontColor=#ffffff;strokeColor=#2D7600;" parent="1" vertex="1">
                    <mxGeometry x="-1550" y="510" width="140" height="80" as="geometry"/>
                </mxCell>
                <mxCell id="122" style="edgeStyle=none;html=1;fontSize=24;fillColor=#60a917;strokeColor=#2D7600;" parent="1" source="120" target="113" edge="1">
                    <mxGeometry relative="1" as="geometry">
                        <mxPoint x="-1110" y="1090" as="targetPoint"/>
                    </mxGeometry>
                </mxCell>
                <mxCell id="120" value="[&lt;br&gt;Cpp-effect2&lt;br&gt;Bpp-effect3, &lt;br&gt;App-effect2&lt;br&gt;]" style="rounded=1;whiteSpace=wrap;html=1;fontSize=24;fillColor=#60a917;fontColor=#ffffff;strokeColor=#2D7600;align=center;" parent="1" vertex="1">
                    <mxGeometry x="-1560" y="720" width="190" height="150" as="geometry"/>
                </mxCell>
                <mxCell id="123" value="commict 阶段" style="whiteSpace=wrap;html=1;fontSize=24;fillColor=#60a917;fontColor=#ffffff;strokeColor=#2D7600;" parent="1" vertex="1">
                    <mxGeometry x="-1700" y="420" width="180" height="55" as="geometry"/>
                </mxCell>
                <mxCell id="125" style="edgeStyle=none;html=1;fontSize=24;" parent="1" source="124" edge="1">
                    <mxGeometry relative="1" as="geometry">
                        <mxPoint x="-1440" y="620" as="targetPoint"/>
                    </mxGeometry>
                </mxCell>
                <mxCell id="124" value="&lt;div style=&quot;color: rgb(171, 178, 191); background-color: rgb(40, 44, 52); font-family: Menlo, Monaco, &amp;quot;Courier New&amp;quot;, monospace; font-size: 14px; line-height: 21px;&quot;&gt;&lt;span style=&quot;color: #61afef;&quot;&gt;commitPassiveEffect&lt;/span&gt;&lt;/div&gt;" style="shape=parallelogram;perimeter=parallelogramPerimeter;whiteSpace=wrap;html=1;fixedSize=1;fontSize=24;" parent="1" vertex="1">
                    <mxGeometry x="-1390" y="524" width="210" height="60" as="geometry"/>
                </mxCell>
                <mxCell id="126" value="&lt;div style=&quot;background-color: rgb(40, 44, 52); font-family: Menlo, Monaco, &amp;quot;Courier New&amp;quot;, monospace; font-weight: normal; font-size: 14px; line-height: 21px;&quot;&gt;&lt;div style=&quot;&quot;&gt;&lt;span style=&quot;color: rgb(229, 192, 123);&quot;&gt;Update&lt;/span&gt;&lt;span style=&quot;color: rgb(171, 178, 191);&quot;&gt;&amp;lt;&lt;/span&gt;&lt;font color=&quot;#ff3333&quot;&gt;1&lt;/font&gt;&lt;span style=&quot;color: rgb(171, 178, 191);&quot;&gt;&amp;gt; &lt;/span&gt;&lt;span style=&quot;color: rgb(86, 182, 194);&quot;&gt;=&lt;/span&gt;&lt;span style=&quot;color: rgb(171, 178, 191);&quot;&gt; {&lt;/span&gt;&lt;/div&gt;&lt;div style=&quot;&quot;&gt;&lt;span style=&quot;color: rgb(171, 178, 191);&quot;&gt;  action&lt;/span&gt;&lt;span style=&quot;color: rgb(86, 182, 194);&quot;&gt;:&lt;/span&gt;&lt;span style=&quot;color: rgb(171, 178, 191);&quot;&gt;&amp;nbsp;&lt;/span&gt;&lt;font color=&quot;#ff3333&quot;&gt;1&lt;/font&gt;&lt;span style=&quot;color: rgb(171, 178, 191);&quot;&gt;//&lt;/span&gt;&lt;font color=&quot;#e5c07b&quot;&gt;T | T =&amp;gt; T&lt;/font&gt;&lt;/div&gt;&lt;div style=&quot;color: rgb(171, 178, 191);&quot;&gt;&lt;span style=&quot;color: #abb2bf;&quot;&gt;  lane&lt;/span&gt;&lt;span style=&quot;color: #56b6c2;&quot;&gt;:&lt;/span&gt;&lt;span style=&quot;color: #abb2bf;&quot;&gt; &lt;/span&gt;&lt;span style=&quot;color: #e5c07b;&quot;&gt;Lane&lt;/span&gt;&lt;/div&gt;&lt;div style=&quot;color: rgb(171, 178, 191);&quot;&gt;&lt;span style=&quot;color: #abb2bf;&quot;&gt;  next&lt;/span&gt;&lt;span style=&quot;color: #56b6c2;&quot;&gt;:&lt;/span&gt;&lt;span style=&quot;color: #abb2bf;&quot;&gt; &lt;/span&gt;&lt;span style=&quot;color: #e5c07b;&quot;&gt;Update&lt;/span&gt;&lt;span style=&quot;color: #abb2bf;&quot;&gt;&amp;lt;2&amp;gt;&lt;/span&gt;&lt;/div&gt;&lt;div style=&quot;color: rgb(171, 178, 191);&quot;&gt;&lt;span style=&quot;color: #abb2bf;&quot;&gt;}&lt;/span&gt;&lt;/div&gt;&lt;/div&gt;" style="text;whiteSpace=wrap;html=1;" vertex="1" parent="1">
                    <mxGeometry x="260" y="520" width="180" height="120" as="geometry"/>
                </mxCell>
                <mxCell id="128" value="" style="shape=stencil(7VvLchw3DPwaXVkkwefZcf7DVZYjVRTLJSuvvw8YFWeHjZkeu3LJwTdpF5gBCaDRALl38u7rw4cv93fRf319ef71/s/Hj68Pd/LTXYyPnx/uXx5f9a87eX8n7z49v9z/8vL8++ePb/9/+TAkx1+/Pf8xnvDXm1500Q+l6P9++6B51/q/n/z8Jv/0+JnKR5cDlc+rvLiWqXxb5bML1J4kq3xxxTP5Cs9vzpdzeXEprPLd5XYun1xa96cHF8j+ZNdAPrpC9qe6ttrTE31+8C7VVSG7RBYcxNW+KhRqUaiugEn6iRAXBNdWH/TmpBKF4lJEhUacLMF584ZOTBLrhuYq2aXknRiThJiUkqtidikRBbW4oB8aiyRxHkzKXEGfByYl6uniZ6pvCjLD/VghGT/EaeSxgo0ljV+S/jXMXd/lcyL5WbPzoJBpaNTmypoPiniVrEG/ltVx+ohKtnUYsJpUk4vEJIWgsIJq6RM2DxV018O6rcMz5A0jENZF5zY9c6xQXF5hRsNRyC5p9Le0KGjAM6DX/AIgSxdv0IRc3yDqBwIzalJe/SCJv6E4v25r7K4TT2u69DXjFP8Le4OG9+oHBU9hsdQwRRWehcVSnvm1KYgrJJY0vMMKM1pihGVcw5zWfWYpnfEFeSbUGQTUNRt0AUS+NKQMG4c4ljf2BFreSpivv8lHBsPV9QTyLDezoRgXz1dCV9F+kgapIn5FGkHJBLXQRNbSCVCRKHhJRUrIc0aTNqwRXacDz8gClPJGy6Z+XWA/Pec7BYEoxLkFxwq6IRBxiXKFwZrBpDKdfqygPoA3dE4jlY0YIIrEy2FjN5uCzG04VlCSt6Zx5Mw/bDx2U9BFE0eHjd1sCo1mjiIhLrrTgqAKUGfFu0oIUohokkYj452qAKEh0TWmEJBciEy8OWsYIqxho67HBQELyEhAhtfYQQrHC1OgxhaRBcjc8Z0PAu0IAS5GgjMno491RYnkmp9P24UpC6INTHbylUSpIeVxy6QTedhPlQ8Ef/X5kGbKV6k91XIcEg/e9YbyzH7D+FWe1Y+AcD1whWGj81ae+CvOfmMvz8B65uveflafMB8HHyL2i/Fvnh78tnxR+UrzMQCwFzpQKEjPBv9jBNMleH6bM5tjjoyNhH5CITSYvsBTQFHMldXDikAUITYA3L2BUcxQkILoGiIzqc0GcbdJdEy2LXHntc5QMSCluDnydKqTjQLLm4ijtYv6rQpQyjSSGFMeqVNQgVHZkTsmVln9HgoV/eCZH2Sypp0Cy56xaENaWBd7gEd9jjzOHIdNKeeCtxZ0r8De4HFoGbfh1pkCtiCNx5J33uySMPLYZw3bO45xwY7jOA0NBgJqEvKKOlPqlJOD48osjWd+8KaSM+SOpjO9TlGEmXIVfAj2hU5ERq9oMo5VQzuQH+WEmSQmHyoPPpnldR9LrKALTjkHg2SOM6w/8vH09yt4LKJagdgxhxaUAqyZn1toyYL+TiINby2KUKeV97O5UTDYKhdHHcHU6USxteNgRC2iA8K5hbslMyZT50naNzZ3WzLunMaYtjIxA9xsciF4jBLbxVlZgESotBP80bn86Fz+z52Lnb4XOkw3iDU6fXbcZfzb6Fm3Mg4D0onsZ8dDGcWTxtoKE9ASKYffaNwOENmArONoQyINuOARgQbC8V4NLfKU8o/5mOF1rHvUKuNNU8FAbgwFDcWhdSxPizeFxE0qs/fbFLQJYNtqTk0H42ZA1LFBHfWf8wlYdOCpY9sWrf+MgNixwphcMvCqeIzQKbhr4Ajc5KCRJKZTK3TgLQXRK/ExZTeDWXrMNU47AR3pIXEqxgOUxWbTfnha/HLC/fF8jNuwRfO0LS0Bj8X8HBwfy2dkH9z+0id3uO1PZvcAoqnGszwcyxd8fqIn6LXjzaRC47+ZeOj0Tkwztz3GaQWbw3Wkr+NQid8ywDafo3vPJqTzTNJjBXNCP2Z9rGJ2vBNzOx08U4C7ScIvbwTvsYCkrUU9ewUMN1Kjmd8b9h1ZKC/qBZvqzNvFrs+DCyWJjk+6NwqdDspaxXuANdHeQMMb0k0ThOFvNROdkSHsJl3B8UnjF92qOWVt/NpNMaPscZ+DYVLCGarmFCtqJSDd6fzKSq4H1wFZD5hNaGh0MfaSurkBWSkwpYxtiwY8Q+5kgm+kFCu1GZGsXzTKAWFjl+bHbKTgqeYNSc5mcdB8qUJiI/9qrvdtN9POqDC0p+PGIUtq4zjejttbmZmOUBMSgIvbg+Z8QLOHQUbAYWXnPvNYTFqj1cfjPSDFC4Z5pjBcXGX22CdcXJX2OHa8uIpt5flVb48H3SrPiq0/uErOypTHYwSVZ4VTn5ZQnl259XOYt5OPxP6At/lUnhEkc0J2KQ93bi7tqd+1XnOOc7Gf8SAemL/MOPAiHv77TwtQXv+4/Y7h0+PT09vPIPbf4+8e9KO330zI+38A);lineShape=1;" vertex="1" parent="1">
                    <mxGeometry x="358.80553873485496" y="436.13633614725086" width="163.08954422968554" height="242.9777719966844" as="geometry"/>
                </mxCell>
                <mxCell id="130" value="next" style="text;html=1;align=center;verticalAlign=middle;resizable=0;points=[];autosize=1;strokeColor=none;fillColor=none;" vertex="1" parent="1">
                    <mxGeometry x="471.9" y="550" width="50" height="30" as="geometry"/>
                </mxCell>
            </root>
        </mxGraphModel>
    </diagram>
</mxfile>